<?xml version="1.0" encoding="utf-8"?>
<svg xmlns="http://www.w3.org/2000/svg" viewBox="0 0 30 30" width="480" height="480" aria-hidden="true" data-slot="icon" fill="currentColor">
  <path d="M14 3C12.9 3 12 3.9 12 5L12 6L18 6L18 5C18 3.9 17.1 3 16 3L14 3 z M 11.828125 8C11.298125 8 10.789063 8.2109375 10.414062 8.5859375L8.5878906 10.414062C8.2118906 10.789062 8 11.297125 8 11.828125L8 13C8 13.601 8.2694531 14.133 8.6894531 14.5C8.2694531 14.867 8 15.399 8 16L8 19C8 19.601 8.2694531 20.133 8.6894531 20.5C8.2694531 20.867 8 21.399 8 22L8 25C8 26.105 8.895 27 10 27L20 27C21.105 27 22 26.105 22 25L22 23C22 22.448 21.552 22 21 22L12 22C11.448 22 11 21.552 11 21C11 20.448 11.448 20 12 20L21 20C21.552 20 22 19.552 22 19L22 17C22 16.448 21.552 16 21 16L12 16C11.448 16 11 15.552 11 15C11 14.448 11.448 14 12 14L21 14C21.552 14 22 13.552 22 13L22 11.828125C22 11.298125 21.789062 10.789062 21.414062 10.414062L19.585938 8.5859375C19.210937 8.2109375 18.701875 8 18.171875 8L11.828125 8 z"  />
</svg>
