<?xml version="1.0" encoding="utf-8"?>
<svg xmlns="http://www.w3.org/2000/svg" viewBox="0 0 30 30" width="480" height="480" aria-hidden="true" data-slot="icon" fill="currentColor">
  <path d="M4.1152344 3C1.7662344 10.647 3.1663125 16.307391 7.9453125 17.775391C8.3753125 17.907391 8.7732031 17.9945 9.1582031 18.0625C9.0042031 17.4635 8.9179687 16.84775 8.9179688 16.21875C8.9179687 15.22675 9.0565938 14.280766 9.3085938 13.384766C8.2585937 11.217766 7.1879688 9.5827344 7.1679688 9.5527344C6.8619687 9.0927344 6.9872656 8.4729687 7.4472656 8.1679688C7.9092656 7.8619687 8.5280312 7.9862656 8.8320312 8.4472656C8.8980313 8.5462656 9.5489844 9.5372344 10.333984 10.990234C11.210984 9.5132344 12.462766 8.2569219 14.009766 7.2949219C12.231766 5.4709219 9.0552344 3.988 4.1152344 3 z M 21.974609 7.171875C16.150609 7.171875 10.917969 10.54975 10.917969 16.21875C10.917969 17.945622 11.789644 19.57598 13.019531 20.835938C11.682268 23.627155 11.042969 25.708984 11.042969 25.708984 A 1.0002993 1.0002993 0 1 0 12.957031 26.291016C12.957031 26.291016 14.331237 21.820606 17.291016 17.300781C18.562442 15.385739 20.129715 13.409366 22.0625 11.591797C22.4645 11.213797 23.098562 11.232766 23.476562 11.634766C23.854563 12.036766 23.835594 12.669828 23.433594 13.048828C20.014594 16.263828 17.761719 20.080375 16.386719 22.984375C16.921719 23.155375 17.452078 23.255859 17.955078 23.255859C23.471078 23.255859 27.001953 19.903266 27.001953 12.197266L27.001953 7.171875L21.974609 7.171875 z" />
</svg>
